<?xml version="1.0" standalone="no"?>
<!DOCTYPE svg PUBLIC "-//W3C//DTD SVG 20010904//EN"
 "http://www.w3.org/TR/2001/REC-SVG-20010904/DTD/svg10.dtd">
<svg version="1.0" xmlns="http://www.w3.org/2000/svg"
 width="720.000000pt" height="720.000000pt" viewBox="0 0 720.000000 720.000000"
 preserveAspectRatio="xMidYMid meet">

<g transform="translate(0.000000,720.000000) scale(0.100000,-0.100000)"
fill="#000000" stroke="none">
<path d="M0 3600 l0 -3600 3600 0 3600 0 0 3600 0 3600 -3600 0 -3600 0 0
-3600z m4975 2619 c243 -20 535 -95 745 -189 719 -324 1159 -982 1262 -1892
16 -141 16 -839 0 -985 -66 -598 -273 -1077 -621 -1436 -279 -288 -632 -483
-1052 -581 -282 -66 -495 -78 -1349 -74 l-695 3 -3 1143 -2 1142 -1068 -2
-1067 -3 -3 -1142 -2 -1143 -335 0 -335 0 0 2585 0 2585 2203 0 c1428 0 2244
-4 2322 -11z"/>
<path d="M1122 4788 l3 -883 1068 -3 1067 -2 0 885 0 885 -1070 0 -1070 0 2
-882z"/>
</g>
</svg>
